<svg width="210" height="150" viewBox="0 0 210 150" fill="none" xmlns="http://www.w3.org/2000/svg">
<g clip-path="url(#clip0)">
<path d="M152.202 101.818V188.79H183.706V133.322C183.706 115.927 169.597 101.818 152.202 101.818Z" fill="#005C89"/>
<path d="M83.4857 101.818V188.79H51.9817V133.322C51.9817 115.927 66.0911 101.818 83.4857 101.818Z" fill="#005C89"/>
<path d="M147.571 173.496H89.948C70.8302 173.496 55.3206 157.986 55.3206 138.868C55.3206 119.751 70.8302 104.241 89.948 104.241H147.571C166.689 104.241 182.198 119.751 182.198 138.868C182.198 157.986 166.689 173.496 147.571 173.496Z" fill="#0980B7"/>
<path d="M147.786 150.77H90.1635C74.8692 150.77 61.9445 140.861 57.3131 127.128C56.0207 130.79 55.2667 134.722 55.2667 138.815C55.2667 157.932 70.7764 173.442 89.8942 173.442H147.517C166.635 173.442 182.144 157.932 182.144 138.815C182.144 134.991 181.498 131.275 180.367 127.829C175.574 141.184 162.811 150.77 147.786 150.77Z" fill="#0B76A9"/>
<path d="M144.232 57.8197C148.069 57.8197 151.179 54.7094 151.179 50.8726C151.179 47.0359 148.069 43.9256 144.232 43.9256C140.395 43.9256 137.285 47.0359 137.285 50.8726C137.285 54.7094 140.395 57.8197 144.232 57.8197Z" fill="#EE927E"/>
<path d="M93.2869 57.8197C97.1236 57.8197 100.234 54.7094 100.234 50.8726C100.234 47.0359 97.1236 43.9256 93.2869 43.9256C89.4502 43.9256 86.3399 47.0359 86.3399 50.8726C86.3399 54.7094 89.4502 57.8197 93.2869 57.8197Z" fill="#EE927E"/>
<path d="M98.6184 50.3879C103.615 50.3879 107.666 46.3373 107.666 41.3406C107.666 36.3439 103.615 32.2933 98.6184 32.2933C93.6217 32.2933 89.5711 36.3439 89.5711 41.3406C89.5711 46.3373 93.6217 50.3879 98.6184 50.3879Z" fill="#ACE0F3"/>
<path d="M138.9 50.3879C143.897 50.3879 147.948 46.3373 147.948 41.3406C147.948 36.3439 143.897 32.2933 138.9 32.2933C133.904 32.2933 129.853 36.3439 129.853 41.3406C129.853 46.3373 133.904 50.3879 138.9 50.3879Z" fill="#ACE0F3"/>
<path d="M143.963 50.1187V49.1493C143.963 35.363 132.6 24 118.759 24C104.919 24 93.5562 35.363 93.5562 49.2032V50.1725C86.9861 56.6349 82.8933 65.6822 82.8933 75.645V105.049H154.679V75.645C154.625 65.6822 150.533 56.6349 143.963 50.1187Z" fill="#F6C09C"/>
<path d="M127.322 43.8718H122.744C121.344 43.8718 120.213 42.7408 120.213 41.3407C120.213 39.9405 121.344 38.8096 122.744 38.8096H127.322C128.722 38.8096 129.853 39.9405 129.853 41.3407C129.799 42.7408 128.668 43.8718 127.322 43.8718Z" fill="#EE927E"/>
<path d="M125.006 51.3034C123.983 51.3034 123.175 50.4956 123.175 49.4724V46.6721C123.175 45.6489 123.983 44.8411 125.006 44.8411C126.03 44.8411 126.837 45.6489 126.837 46.6721V49.4724C126.837 50.4956 126.03 51.3034 125.006 51.3034Z" fill="#002334"/>
<path d="M127.322 40.5328H122.744C121.344 40.5328 120.213 39.4019 120.213 38.0017C120.213 36.6016 121.344 35.4706 122.744 35.4706H127.322C128.722 35.4706 129.853 36.6016 129.853 38.0017C129.799 39.4019 128.668 40.5328 127.322 40.5328Z" fill="#ACE0F3"/>
<path d="M114.828 43.8718H110.251C108.85 43.8718 107.72 42.7408 107.72 41.3407C107.72 39.9405 108.85 38.8096 110.251 38.8096H114.828C116.228 38.8096 117.359 39.9405 117.359 41.3407C117.305 42.7408 116.174 43.8718 114.828 43.8718Z" fill="#EE927E"/>
<path d="M112.512 51.3034C111.489 51.3034 110.681 50.4956 110.681 49.4724V46.6721C110.681 45.6489 111.489 44.8411 112.512 44.8411C113.536 44.8411 114.343 45.6489 114.343 46.6721V49.4724C114.343 50.4956 113.536 51.3034 112.512 51.3034Z" fill="#002334"/>
<path d="M114.828 40.5328H110.251C108.85 40.5328 107.72 39.4019 107.72 38.0017C107.72 36.6016 108.85 35.4706 110.251 35.4706H114.828C116.228 35.4706 117.359 36.6016 117.359 38.0017C117.305 39.4019 116.174 40.5328 114.828 40.5328Z" fill="#ACE0F3"/>
<path d="M118.759 80.5456C127.914 80.5456 135.346 73.1139 135.346 63.9589H102.173C102.173 73.1139 109.604 80.5456 118.759 80.5456Z" fill="white"/>
<path d="M132.169 53.6191H119.298H118.221H105.35C99.48 53.6191 94.7409 58.3582 94.7409 64.2282V67.5132H113.213C115.69 67.5132 117.844 66.0053 118.813 63.9051C119.783 66.0592 121.883 67.5132 124.414 67.5132H142.886V64.2282C142.778 58.4121 138.039 53.6191 132.169 53.6191Z" fill="#ACE0F3"/>
<path d="M154.679 95.3013H82.8933V105.049H154.679V95.3013Z" fill="#00A8C7"/>
<path d="M154.679 90.2391H82.8933V95.3552H154.679V90.2391Z" fill="#EE927E"/>
<path d="M119.944 95.3013H117.628V105.049H119.944V95.3013Z" fill="#086794"/>
<path d="M113.266 102.302C114.426 102.302 115.367 101.362 115.367 100.202C115.367 99.042 114.426 98.1017 113.266 98.1017C112.106 98.1017 111.166 99.042 111.166 100.202C111.166 101.362 112.106 102.302 113.266 102.302Z" fill="white"/>
<path d="M119.89 105.103H117.521V166.495H119.89V105.103Z" fill="#0A6E9E"/>
<path d="M114.559 116.466C114.559 117.273 113.913 117.92 113.105 117.92C112.297 117.92 111.651 117.273 111.651 116.466C111.651 115.658 112.297 115.012 113.105 115.012C113.913 115.012 114.559 115.712 114.559 116.466Z" fill="white"/>
<path d="M114.559 129.283C114.559 130.09 113.913 130.737 113.105 130.737C112.297 130.737 111.651 130.09 111.651 129.283C111.651 128.475 112.297 127.829 113.105 127.829C113.913 127.829 114.559 128.475 114.559 129.283Z" fill="white"/>
<path d="M114.559 142.1C114.559 142.907 113.913 143.554 113.105 143.554C112.297 143.554 111.651 142.907 111.651 142.1C111.651 141.292 112.297 140.646 113.105 140.646C113.913 140.646 114.559 141.292 114.559 142.1Z" fill="white"/>
</g>
<defs>
<clipPath id="clip0">
<rect width="210" height="150" fill="white"/>
</clipPath>
</defs>
</svg>
