<svg width="218" height="136" viewBox="0 0 218 136" fill="none" xmlns="http://www.w3.org/2000/svg">
<g clip-path="url(#clip0)">
<path d="M92.2741 125.813C79.3645 125.813 68.8828 136.297 68.8828 149.21V178.294H92.2741V125.813Z" fill="#CC1E53"/>
<path d="M124.726 125.813C137.636 125.813 148.117 136.297 148.117 149.21V178.294H124.726V125.813Z" fill="#CC1E53"/>
<path d="M137.162 145.419C137.162 129.663 124.371 116.869 108.618 116.869C92.9847 116.869 80.312 129.426 80.0751 145.005H79.8974V156.555H136.984V145.36H137.162V145.419Z" fill="#EE2761"/>
<path d="M108.559 42.4115C120.268 42.4115 129.759 32.9174 129.759 21.2057C129.759 9.49414 120.268 0 108.559 0C96.8506 0 87.359 9.49414 87.359 21.2057C87.359 32.9174 96.8506 42.4115 108.559 42.4115Z" fill="#002334"/>
<path d="M108.559 100.283C129.85 100.283 147.11 83.0186 147.11 61.7217C147.11 40.4249 129.85 23.1605 108.559 23.1605C87.2679 23.1605 70.0079 40.4249 70.0079 61.7217C70.0079 83.0186 87.2679 100.283 108.559 100.283Z" fill="#002334"/>
<path d="M85.1894 77.0745C87.9693 75.9227 89.2894 72.7348 88.1379 69.9542C86.9864 67.1736 83.7994 65.8531 81.0194 67.0049C78.2395 68.1567 76.9194 71.3446 78.0709 74.1253C79.2224 76.9059 82.4095 78.2263 85.1894 77.0745Z" fill="#79483E"/>
<path d="M136.236 77.0694C139.016 75.9176 140.336 72.7297 139.184 69.949C138.033 67.1684 134.846 65.8479 132.066 66.9997C129.286 68.1515 127.966 71.3394 129.117 74.1201C130.269 76.9007 133.456 78.2212 136.236 77.0694Z" fill="#79483E"/>
<path d="M108.915 129.012C103.881 129.012 99.7356 124.865 99.7356 119.83V101.764C99.7356 96.729 103.881 92.5826 108.915 92.5826C113.948 92.5826 118.093 96.729 118.093 101.764V119.83C118.093 124.865 114.007 129.012 108.915 129.012Z" fill="#63382F"/>
<path d="M108.915 116.632C103.881 116.632 99.7356 112.485 99.7356 107.45V89.384C99.7356 84.3491 103.881 80.2028 108.915 80.2028C113.948 80.2028 118.093 84.3491 118.093 89.384V107.45C118.093 112.544 114.007 116.632 108.915 116.632Z" fill="#532C24"/>
<path d="M108.559 107.865C94.6429 107.865 83.2137 96.4328 83.2137 82.5129V67.2897C83.2137 53.3105 94.6429 41.9376 108.559 41.9376C122.476 41.9376 133.905 53.3698 133.905 67.2897V82.5129C133.905 96.4328 122.476 107.865 108.559 107.865Z" fill="#A16356"/>
<path d="M108.559 98.7429C94.6429 98.7429 83.2137 87.3108 83.2137 73.3908V82.5128C83.2137 96.4328 94.6429 107.865 108.559 107.865C122.476 107.865 133.905 96.4328 133.905 82.5128V73.3908C133.905 87.3108 122.476 98.7429 108.559 98.7429Z" fill="#92594D"/>
<path d="M91.9188 75.6417C92.1557 84.6453 99.4988 91.8718 108.559 91.8718C117.62 91.8718 124.963 84.6453 125.2 75.6417H91.9188Z" fill="white"/>
<path d="M99.2619 64.3873H91.8004C90.083 64.3873 88.721 62.9656 88.721 61.3071C88.721 59.5893 90.1423 58.2269 91.8004 58.2269H99.2619C100.979 58.2269 102.341 59.6485 102.341 61.3071C102.341 62.9656 100.979 64.3873 99.2619 64.3873Z" fill="#79483E"/>
<path d="M99.2619 60.004H91.8004C90.083 60.004 88.721 58.5823 88.721 56.9238C88.721 55.206 90.1422 53.8436 91.8004 53.8436H99.2619C100.979 53.8436 102.341 55.2652 102.341 56.9238C102.341 58.6416 100.979 60.004 99.2619 60.004Z" fill="#002334"/>
<path d="M125.318 64.3873H117.857C116.139 64.3873 114.777 62.9656 114.777 61.3071C114.777 59.5893 116.198 58.2269 117.857 58.2269H125.318C127.035 58.2269 128.397 59.6485 128.397 61.3071C128.457 62.9656 127.035 64.3873 125.318 64.3873Z" fill="#79483E"/>
<path d="M125.318 60.004H117.857C116.139 60.004 114.777 58.5823 114.777 56.9238C114.777 55.206 116.198 53.8436 117.857 53.8436H125.318C127.035 53.8436 128.397 55.2652 128.397 56.9238C128.457 58.6416 127.035 60.004 125.318 60.004Z" fill="#002334"/>
<path d="M95.3535 72.0284C94.1691 72.0284 93.2216 71.0807 93.2216 69.896V67.7636C93.2216 66.5789 94.1691 65.6312 95.3535 65.6312C96.5378 65.6312 97.4853 66.5789 97.4853 67.7636V69.896C97.4853 71.0807 96.5378 72.0284 95.3535 72.0284Z" fill="#002334"/>
<path d="M121.765 72.0284C120.581 72.0284 119.633 71.0807 119.633 69.896V67.7636C119.633 66.5789 120.581 65.6312 121.765 65.6312C122.949 65.6312 123.897 66.5789 123.897 67.7636V69.896C123.897 71.0807 122.949 72.0284 121.765 72.0284Z" fill="#002334"/>
</g>
<defs>
<clipPath id="clip0">
<rect width="218" height="136" fill="white"/>
</clipPath>
</defs>
</svg>
